PathFileType	4	(X/Y/Z)	D:\TRACE\v60_Jaco2_6-2-23\BothDRS_Motion3_9-v60.trc
DataRate	CameraRate	NumFrames	NumMarkers	Units	OrigDataRate	OrigDataStartFrame	OrigNumFrames
100.00	100.00	      28	9	mm	100.00	6126	      7000
Frame#	Time	front left toe			Front right toe			aft left toe			aft right toe			Arm			FL body			FR body			AL Body			AR Body			
		X1	Y1	Z1	X2	Y2	Z2	X3	Y3	Z3	X4	Y4	Z4	X5	Y5	Z5	X6	Y6	Z6	X7	Y7	Z7	X8	Y8	Z8	X9	Y9	Z9	

6126	61.250	-118.70314	15.18746	-74.18392	252.58069	140.49821	-65.58099	-156.19286	126.49686	535.48285	229.35844	-3.40989	563.28650	139.60355	1147.96619	-402.83188	-6.75042	526.22900	-245.03101	151.33813	518.49707	-237.14568	-44.52787	535.64044	698.56262	105.61847	519.45752	705.70178	
6127	61.260	-118.91273	15.16858	-74.28655	251.71471	135.09091	-65.32848	-155.49109	122.39092	536.68683	229.42940	-3.14079	563.10278	137.62766	1148.43396	-403.21118	-7.27020	526.40533	-245.27382	150.73195	518.74689	-237.51138	-44.50521	536.06427	698.61499	105.87685	519.34814	704.98944	
6128	61.270	-118.87715	15.05543	-74.21099	250.70317	128.78546	-65.33227	-155.89944	117.79494	537.70038	229.30867	-2.92694	563.04150	135.46352	1148.75537	-403.78680	-7.91955	526.48212	-245.63582	149.66841	519.25763	-237.77962	-44.40239	536.16296	698.38171	106.21512	519.64465	704.65802	
6129	61.280	-118.87651	14.99401	-74.17891	250.59793	121.42658	-65.25716	-155.75276	111.86452	538.39862	229.31367	-2.83566	562.89032	134.13936	1148.95203	-404.09680	-8.46228	526.44849	-245.62891	149.30872	519.31494	-238.35791	-44.17793	536.18274	698.19232	106.53970	519.73157	704.13635	
6130	61.290	-118.98550	14.93756	-74.22372	249.78047	113.04034	-65.68586	-155.47171	104.83291	539.10754	228.95236	-3.48429	562.10229	132.20731	1149.25830	-404.29941	-8.98723	526.37885	-245.66959	148.78580	519.19391	-238.72046	-43.83140	536.27222	698.01141	107.07347	520.38757	704.57202	
6131	61.300	-118.57507	13.94314	-73.72610	249.71457	103.80354	-66.52692	-155.44199	96.68670	539.39972	229.37944	-2.57446	562.68958	130.97171	1149.30676	-404.51794	-9.91944	526.19537	-246.23996	148.18629	519.09778	-238.88516	-43.41874	536.35864	697.82257	107.35674	520.51807	704.36682	
6132	61.310	-118.70881	13.93147	-73.80653	250.78137	94.86647	-66.52970	-155.26477	87.59416	539.83032	229.20818	-2.62100	562.50983	129.26752	1149.29907	-405.01309	-10.69624	525.99353	-246.45079	147.58116	518.87421	-239.61264	-43.10279	536.19183	697.50751	107.44146	520.58539	703.98016	
6133	61.320	-118.78366	13.76324	-73.78970	250.24890	85.35256	-66.98833	-154.67490	77.90382	540.39728	229.22195	-2.54693	562.43695	128.25302	1149.26367	-405.35181	-11.30101	525.83038	-246.64293	147.27664	518.78308	-239.90030	-42.48491	536.13074	697.43616	107.40057	520.63556	703.48206	
6134	61.330	-118.84839	13.66725	-73.80133	249.68904	76.47665	-67.28674	-152.77971	67.75890	540.46173	229.12686	-2.56933	562.36139	126.58657	1149.25964	-405.81271	-11.97811	525.84064	-246.90878	146.70030	518.82172	-240.39207	-42.44215	535.86786	697.43799	107.88007	520.09924	702.40692	
6135	61.340	-118.88721	13.62558	-73.83154	249.19490	69.56739	-68.83691	-152.07570	58.78546	540.46649	229.25082	-2.54044	562.26147	125.38448	1149.20178	-405.98422	-12.52017	525.85992	-246.99150	145.56406	519.04974	-240.61604	-41.97436	535.54272	697.33398	108.41035	519.80048	702.04572	
6136	61.350	-118.90950	13.65956	-73.86562	248.98648	62.11687	-69.87039	-150.74550	49.65438	539.93030	229.51398	-2.41996	562.23450	124.16702	1149.20959	-406.38257	-12.84851	525.90112	-247.20599	144.99605	519.16425	-241.04671	-41.73385	535.47064	696.88440	108.50491	519.58551	701.84064	
6137	61.360	-118.94085	13.65570	-73.94405	248.80571	53.98350	-70.96645	-149.43748	41.03695	538.81635	229.61378	-2.32573	562.21289	122.92900	1149.53772	-406.71478	-13.32060	525.89905	-247.60205	144.71983	519.15613	-241.41743	-41.06957	535.37274	696.43073	108.93414	519.56592	701.33716	
6138	61.370	-118.90980	13.54063	-73.95627	249.20988	46.46458	-71.43255	-149.38817	33.65025	538.30475	229.84035	-2.11807	562.13983	122.27151	1149.74438	-406.89935	-13.81975	525.69482	-247.88820	144.30174	519.23755	-241.90613	-40.44470	535.14600	696.19904	109.28861	519.64166	700.64935	
6139	61.380	-118.90015	13.40546	-73.96714	249.41106	40.19187	-72.44208	-148.59891	25.95466	537.06256	229.85902	-1.92159	562.01044	120.76936	1150.23511	-407.32794	-14.43078	525.71967	-248.40222	143.71634	519.35779	-242.62764	-40.19357	534.94104	695.95642	109.64223	519.64191	700.15613	
6140	61.390	-118.94434	13.41715	-73.99329	249.76421	34.55276	-73.30005	-148.61679	19.94442	536.50885	229.81055	-1.81570	561.91431	119.59141	1150.67004	-407.43423	-14.80796	525.67761	-248.69145	143.80237	519.56671	-243.31834	-39.93544	534.85992	695.37286	110.40382	519.54828	699.70245	
6141	61.400	-119.03725	13.56855	-74.09264	250.01436	29.08500	-74.51029	-147.68379	13.21558	535.48950	229.90866	-1.59832	561.80981	118.30690	1151.16321	-407.67068	-15.14965	525.79156	-249.09508	142.82269	520.02069	-243.90703	-39.22415	534.83643	694.86511	110.95549	519.57635	699.13763	
6142	61.410	-118.94263	13.54801	-74.14034	250.04822	22.88825	-75.85966	-148.03641	7.14280	534.69440	230.00183	-1.33157	561.73297	117.40437	1151.42163	-408.24557	-15.55261	525.99329	-249.78993	142.38283	520.23279	-244.66824	-38.84233	534.81195	694.44611	111.25485	519.62372	698.37756	
6143	61.420	-118.87880	13.74024	-74.15785	250.40811	20.45414	-78.25536	-147.76778	3.11276	532.65259	230.06561	-1.04506	561.71326	115.90012	1151.82397	-408.92569	-15.94253	526.08997	-250.40877	142.02138	520.38330	-245.34596	-38.47068	534.72137	693.93640	111.22316	519.72211	697.56537	
6144	61.430	-118.74539	13.67565	-74.25203	251.01288	18.19153	-77.07487	-148.56223	1.56175	532.93164	230.08916	-0.85370	561.59937	114.88345	1152.02600	-409.51752	-16.46701	526.42645	-251.14404	141.50035	520.78040	-246.10144	-38.13866	535.17267	692.87732	112.06453	520.13739	696.87994	
6145	61.440	-118.62645	13.85420	-74.36066	251.78554	18.50016	-78.27120	-148.37538	1.83021	532.53900	229.97626	-0.49219	561.37280	113.69584	1152.45740	-410.57224	-17.32804	526.79956	-251.74886	140.66302	521.28137	-246.98863	-38.05242	536.79901	692.39728	112.00985	521.72223	696.10803	
6146	61.450	-118.16016	15.49997	-74.92331	251.70808	17.03962	-77.47287	-148.09608	2.53115	533.04974	229.90034	2.15381	560.39294	112.74963	1153.32678	-412.34491	-17.80530	527.21930	-252.57188	140.21111	521.86310	-247.72379	-37.45577	538.67303	692.16162	112.19403	523.51703	695.40302	
6147	61.460	-114.83674	20.79804	-73.35569	251.86440	16.99081	-78.47710	-146.80783	2.39362	532.71204	227.12335	5.87762	563.28436	111.60568	1153.82385	-414.08435	-18.65758	528.03833	-253.19144	140.10703	522.49878	-248.74138	-37.38976	539.35571	691.15601	112.09971	524.58478	694.30737	
6148	61.470	-110.91934	24.71671	-68.84439	251.91655	17.15003	-78.39806	-146.75188	2.67886	532.38739	223.68477	11.08297	566.54889	110.55198	1153.46704	-415.85794	-19.20534	528.44507	-253.52832	138.86273	523.22925	-249.30829	-37.11170	540.30878	690.46246	112.37254	525.49384	693.76202	
6149	61.480	-109.50160	34.41595	-67.88803	251.85605	17.01955	-78.63760	-147.06825	3.22932	532.42407	220.15952	21.63095	567.17523	108.64478	1152.78345	-416.99713	-20.06004	528.66138	-254.34860	138.13020	523.51251	-249.77185	-37.38704	541.08881	690.34729	112.54807	526.30072	693.17542	
6150	61.490	-109.90485	46.12243	-69.05005	252.05746	16.68127	-78.44296	-146.96577	3.53657	532.35596	218.09529	32.91167	566.21997	107.41638	1152.29211	-418.10608	-20.46498	528.45355	-254.84084	137.62775	523.33771	-250.21140	-37.54832	541.79327	689.98761	112.02972	526.89569	692.72028	
6151	61.500	-112.40331	57.58597	-70.27997	252.09560	16.56658	-78.46413	-147.02367	3.75966	532.53131	218.78148	45.85254	564.05518	105.91656	1152.08130	-418.93530	-20.45057	527.61676	-254.76971	137.41327	522.89325	-250.65491	-37.86576	542.40607	689.51288	111.68290	527.71838	692.30249	
6152	61.510	-115.19915	70.29190	-72.52541	252.24196	16.39835	-78.53821	-146.98622	3.77285	532.46143	220.53569	59.34869	561.90063	104.93357	1151.85144	-419.71677	-20.50707	526.71851	-255.34978	137.26866	522.01154	-250.97783	-38.42207	542.42957	688.92908	110.20710	526.85187	691.49683	
6153	61.520	-118.17531	83.28115	-74.43597	252.40340	16.44677	-78.39999	-146.98395	3.64777	532.17365	222.35988	72.88628	559.79230	104.50360	1151.27466	-419.94791	-21.04542	526.23718	-255.72784	137.65158	521.53003	-251.36072	-39.79517	542.48499	688.51263	110.09605	527.64484	691.47449	
